  <svg
        width="32"
        height="32"
        viewBox="0 0 32 32"
        fill="none"
        xmlns="http://www.w3.org/2000/svg"
      >
        <path
          d="M31 2V30C31 30.5523 30.5523 31 30 31H2C1.44772 31 1 30.5523 1 30V2C1 1.44772 1.44772 1 2 1H30C30.5523 1 31 1.44772 31 2Z"
          stroke="#7D7D7D"
          stroke-width="1.3"
          stroke-linecap="round"
          stroke-linejoin="round"
        />
        <path
          d="M1 22.6667L12.6667 17.6667L31 26"
          stroke="#7D7D7D"
          stroke-width="1.3"
          stroke-linecap="round"
          stroke-linejoin="round"
        />
        <path
          d="M22.6667 12.6667C20.8257 12.6667 19.3333 11.1743 19.3333 9.33333C19.3333 7.49238 20.8257 6 22.6667 6C24.5077 6 26 7.49238 26 9.33333C26 11.1743 24.5077 12.6667 22.6667 12.6667Z"
          stroke="#7D7D7D"
          stroke-width="1.3"
          stroke-linecap="round"
          stroke-linejoin="round"
        />
      </svg>